# xmcd CD database file
#
# Track frame offsets:
#	150
#	11292
#	35777
#	48977
#	62702
#	72217
#	82330
#	92355
#	110505
#	124755
#	138630
#	157377
#	166680
#	178980
#	192330
#	205830
#	216480
#	229265
#	239130
#	249670
#	259362
#	272297
#	290215
#	294330
#	303792
#	316905
#
# Disc length: 4459 seconds
#
# Revision: 2
# Processed by: cddbd v1.5.2PL0 Copyright (c) Steve Scherf et al.
# Submitted via: CDex 1.70beta2
#
DISCID=9311691a
DTITLE=Miles Davis - Ascenseur pour l'Échafaud
DYEAR=1958
DGENRE=Jazz
TTITLE0=Nuit sur les Champs-Élysées (take 1)
TTITLE1=Nuit sur les Champs-Élysées (take 2)
TTITLE2=Nuit sur les Champs-Élysées (take 3)
TTITLE3=Nuit sur les Champs-Élysées (take 4) (Florence sur les Champs-Élysées)
TTITLE4=Assassinat (take 1) (Visite du vigile)
TTITLE5=Assassinat (take 2) (Julien dans l'ascenseur)
TTITLE6=Assassinat (take 3) (L'assassinat de Carala)
TTITLE7=Motel (Dîner au motel)
TTITLE8=Final (take 1)
TTITLE9=Final (take 2)
TTITLE10=Final (take 3) (Chez le photographe du motel)
TTITLE11=Ascenseur (Évasion de Julien)
TTITLE12=Le petit bal (take 1)
TTITLE13=Le petit bal (take 2) (Au bar du Petit Bac)
TTITLE14=Séquence Voiture (take 1)
TTITLE15=Séquence Voiture (take 2) (Sur l'autoroute)
TTITLE16=Générique
TTITLE17=L'assassinat de Carala
TTITLE18=Sur l'Autoroute
TTITLE19=Julien dans l'ascenseur
TTITLE20=Florence sur les Champs-Élysées
TTITLE21=Diner au motel
TTITLE22=Évasion de Julien
TTITLE23=Visite du Vigile
TTITLE24=Au bar du petit bac
TTITLE25=Chez le photographe du motel
EXTD=Bande Originale du film\n YEAR: 1958
EXTT0=
EXTT1=
EXTT2=
EXTT3=
EXTT4=
EXTT5=
EXTT6=
EXTT7=
EXTT8=
EXTT9=
EXTT10=
EXTT11=
EXTT12=
EXTT13=
EXTT14=
EXTT15=
EXTT16=
EXTT17=
EXTT18=
EXTT19=
EXTT20=
EXTT21=
EXTT22=
EXTT23=
EXTT24=
EXTT25=
PLAYORDER=
